<?xml version="1.0" standalone="no"?>
<svg version="1.1" baseProfile="full" xmlns="http://www.w3.org/2000/svg" width="300pt" height="197pt" viewBox="0 0 300 197" preserveAspectRatio="xMidYMid meet">
<title>ARFP CRM Logo</title>
<g transform="translate(0,197) scale(0.05,-0.05)" fill="#049424" stroke="none">
<circle cx="2100" cy="3550" r="255" stroke="#999900"/>
<path id="Line" d="M 2960 3550 l-390 -390 -480 0 -481 0 -469 -457 c-466 -454 -469 -457 -437 -505 61 -92 98 -66 542 377 l427 425 486 0 487 0 407 404 c405 401 444 452 384 512 -50 50 -96 14 -476 -366z"/>
<use href="#Line" fill="#14a434" x="200" y="-210" />
<use href="#Line" fill="#99DD11" x="400" y="-420" />
<use href="#Line" fill="#E5FF00" x="600" y="-630" />
<use href="#Line" fill="#F5F500" x="800" y="-840" />
<path id="C" d="M2470 1937 c-189 -114 -186 -477 4 -477 100 0 229 106 196 160 -20 33 -66 23 -79 -17 -6 -20 -34 -47 -62 -60 -119 -54 -172 143 -73 275 38 52 144 84 144 43 0 -11 18 -21 40 -21 46 0 53 44 13 77 -42 36 -139 46 -183 20z"/>
<path id="R" d="M3857 1660 c-2 -77 -4 -151 -5 -165 -1 -14 16 -25 38 -25 35 0 39 11 33 86 -8 100 43 181 89 142 34 -28 68 -6 68 44 0 51 -45 67 -102 37 -34 -18 -48 -19 -54 -2 -26 80 -64 14 -67 -117z"/>
<path id="R2" d="M53 1367 c-7 -8 -13 -34 -13 -59 0 -25 -9 -51 -20 -58 -13 -8 -13 -26 1 -53 13 -23 20 -131 17 -259 -5 -224 8 -270 69 -247 26 11 33 40 33 141 0 157 -6 157 164 -7 144 -140 221 -171 232 -95 4 27 -14 52 -50 75 -31 19 -101 74 -156 123 l-100 88 85 34 c293 118 206 406 -91 301 -70 -24 -82 -24 -92 0 -11 30 -56 39 -79 16z m338 -108 c25 -40 -154 -179 -230 -179 -58 0 -21 142 44 170 78 34 168 38 186 9z"/>
<path id="E" d="M770 1141 c-210 -87 -226 -461 -20 -461 165 0 358 175 216 196 -25 4 -52 -12 -72 -43 -63 -95 -194 -84 -194 17 0 39 14 48 95 60 155 23 225 60 225 119 0 105 -128 162 -250 112z m145 -95 c8 -26 -150 -77 -172 -56 -7 8 9 31 35 53 52 41 124 43 137 3z"/>
<path id="accent" d="M868 1446 c-20 -31 -57 -80 -84 -110 -53 -58 -48 -117 10 -115 45 2 191 190 182 235 -11 56 -71 51 -108 -10z"/>
<path id="A" d="M1300 1167 c-113 -37 -180 -77 -180 -108 0 -53 51 -61 106 -18 67 52 180 61 190 14 4 -19 -5 -39 -20 -43 -225 -64 -316 -131 -316 -231 0 -111 157 -135 282 -43 l55 41 7 -44 c4 -30 20 -45 46 -45 55 0 72 405 19 458 -30 30 -125 40 -189 19z m120 -256 c0 -37 -113 -124 -185 -142 -109 -27 -58 68 75 138 76 40 110 41 110 4z"/>
<path id="D" d="M2007 1375 c-9 -14 -13 -72 -10 -130 7 -104 6 -105 -51 -105 -121 0 -290 -157 -318 -295 -36 -182 178 -224 322 -65 l40 45 10 -68 c8 -50 20 -67 50 -67 50 0 74 662 25 693 -35 23 -50 21 -68 -8z m-7 -367 c0 -33 -149 -201 -206 -231 -50 -27 -83 5 -65 61 43 136 271 279 271 170z"/>
<path id="P" d="M2825 1165 c-19 -6 -25 -104 -25 -395 0 -392 5 -420 75 -395 17 6 25 56 25 157 0 138 3 148 43 148 134 0 297 185 297 336 0 139 -160 192 -278 92 l-62 -52 0 50 c0 51 -30 75 -75 59z m315 -146 c0 -92 -119 -239 -194 -239 -75 0 -65 129 18 214 76 79 176 93 176 25z"/>
<path id="T" d="M3391 1231 c0 -60 -7 -69 -55 -75 -85 -9 -91 -96 -6 -96 l61 0 0 -181 c0 -194 12 -215 107 -192 60 15 233 168 233 205 0 61 -60 51 -127 -20 -100 -106 -116 -96 -109 73 l6 145 86 6 c76 6 86 12 80 50 -5 38 -17 43 -91 39 -82 -6 -85 -4 -85 55 0 51 -8 60 -50 60 -44 0 -50 -9 -50 -69z"/>
<path id="I" d="M4818 1156 c-17 -63 -3 -458 17 -465 74 -29 86 7 81 236 -6 214 -8 223 -51 229 -25 4 -46 4 -47 0z"/>
<path id="dot" d="M4831 1348 c-38 -38 -40 -96 -4 -126 37 -30 86 -9 100 41 22 84 -42 139 -96 85z"/>
<path id="O" d="M5210 1152 c-244 -109 -256 -472 -16 -472 227 0 377 292 228 442 -64 63 -119 71 -212 30z m146 -96 c98 -98 -78 -339 -200 -274 -34 18 -39 35 -30 105 18 132 161 238 230 169z"/>
<path id="N" d="M5612 1164 c-22 -37 -21 -443 3 -467 52 -52 85 -2 85 130 0 127 1 128 80 180 119 80 124 75 118 -117 -7 -180 14 -238 68 -193 22 18 26 68 18 228 -12 278 -43 308 -199 194 l-82 -60 -7 55 c-6 55 -61 87 -84 50z"/>
<path id="M" d="M2260 188 c0 -210 41 -263 60 -76 l10 98 46 -105 c55 -128 47 -129 117 10 l57 115 6 -116 c10 -196 54 -133 54 78 0 183 -38 250 -71 125 -8 -28 -36 -85 -64 -125 l-49 -73 -58 130 c-83 186 -108 172 -108 -61z"/>
<path id="U" d="M2708 152 c0 -127 24 -153 131 -144 l79 7 6 123 c5 99 0 122 -25 122 -23 0 -31 -22 -31 -88 0 -62 -9 -91 -32 -100 -59 -23 -68 -12 -68 88 0 76 -7 100 -30 100 -23 0 -30 -25 -30 -108z"/>
<path id="L" d="M3012 363 c-20 -33 13 -365 36 -357 37 12 41 374 4 374 -16 0 -34 -8 -40 -17z"/>
<path id="H" d="M3160 188 c0 -192 41 -269 57 -108 5 61 48 118 88 119 8 1 15 -45 15 -101 0 -136 48 -124 55 14 7 133 -15 164 -94 134 l-61 -23 0 79 c0 56 -8 78 -30 78 -25 0 -30 -35 -30 -192z"/>
<path id="S" d="M4093 223 c-73 -81 -22 -144 87 -106 48 17 60 15 60 -7 0 -36 -63 -55 -128 -39 -40 10 -52 6 -52 -18 0 -46 97 -65 157 -31 122 70 110 170 -20 152 -61 -8 -76 -5 -59 12 12 12 47 24 76 25 30 1 57 13 62 26 13 40 -145 28 -183 -14z"/>
<g transform="scale(0.7, 0.7)">
<use href="#E" x="3320" y="1405" />
<use href="#E" x="5230" y="1405" />
<use href="#E" x="6620" y="1405" />
<use href="#D" x="5050" y="1405" />
<use href="#N" x="-1150" y="1405" />
<use href="#T" x="1650" y="1405" />
</g>
<g transform="scale(0.5, 0.5)">
<use href="#D" x="1320" y="-660" />
<use href="#E" x="2920" y="-660" />
<use href="#E" x="8100" y="-660" />
<use href="#O" x="1900" y="-660" />
</g>
<use href="#T" x="1009" y="0" />
<use href="#A" x="1120" y="0" />
<use href="#A" x="2690" y="0" />
<use href="#U" x="1052" y="0" />
</g>
</svg>